Patient4_TMGait_0pt4_03_left_35_EMG.mot
version=1
nRows=40
nColumns=33
inDegrees=no
endheader
time	1LAddLong	2LGlutMax	3LGlutMed	4LIliopsoas	5LSemiMemb	6LBicFemLong	7LRecFem	8LVastMed	9LVastLat	10LGasMed	11LTibAnt	12lTibPost	13LPeroneusLong	14LSol	15LExtDigLong	16LFlexDigLong	17RAddLong	18RGlutMax	19RGlutMed	20RIliopsoas	21RSemiMemb	22RBicFemLong	23RRecFem	24RVastMed	25RVastLat	26RGasMed	27RTibAnt	28RTibPost	29RPeroneusLong	30RSol	31RExtDigLong	32RFlexDigLong
46.782	0.019073	-0.001678	-0.085602	0.015717	-0.10071	0.096893	-0.28748	-0.014343	-0.005798	0.12711	-0.013428	0.035095	0.024872	-0.23621	-0.026245	0.22476	0.000916	-0.12466	-0.022736	0.24963	-0.042419	-0.023193	0.42435	-0.11292	0.003357	0.001221	0.090637	-0.027161	0.013275	-0.2092	0.000458	-0.006866
46.783	0.018921	0.041656	-0.14847	0.007477	-0.085754	0.14648	-0.31784	0.000458	-0.099487	0.14511	-0.014496	-0.023346	0.029907	0.060883	0.026398	0.36713	0.018616	-0.067139	-0.007782	0.13458	-0.066528	-0.027466	0.45929	-0.16647	0.001678	0.003967	-0.08606	-0.027313	0.040741	-0.14984	0.001678	-0.009003
46.784	0.014191	-0.09964	-0.15198	0.006714	-0.065765	0.18906	-0.31738	0.03067	-0.098267	0.003204	0.001526	0.039825	0.004272	0.13931	0.055847	-0.52521	-0.011749	-0.10269	0.018921	0.022736	-0.058594	-0.030975	0.44388	-0.14481	0.008698	0.00351	-0.16327	-0.027008	-0.019073	-0.079803	0	-0.006714
46.785	0.018311	-0.14847	-0.15869	0.003815	0.01236	0.14847	-0.32501	0.020599	-0.074158	-0.19562	0.018005	0.010529	-0.039063	-0.22964	0.039978	-0.024567	-0.014496	-0.19104	-0.15579	0.046082	-0.063477	-0.041809	0.40894	-0.15045	0.009003	0.00351	-0.13016	-0.019226	-0.058136	-0.062256	-0.001221	-0.016937
46.786	0.023499	-0.003662	0.019836	-0.000458	0.021667	0.11749	-0.33371	0.007172	-0.055542	-0.18524	0.029755	-0.001068	-0.018311	-0.13962	0.029755	0.092926	-0.013885	-0.12512	-0.20111	0.068817	-0.040131	-0.046387	0.38345	-0.14572	-0.001373	0.003967	-0.085144	-0.020599	-0.037537	-0.070801	0.00473	-0.021667
46.787	0.025635	0.19806	0.14343	-0.007629	0.1059	0.004883	-0.37857	-0.001984	-0.053711	-0.15549	0.019226	-0.056458	0.052948	-0.25116	0.039215	0.13031	0.006561	-0.072632	-0.2034	0.17868	-0.015564	-0.053864	0.37506	-0.098419	0.006256	0.003357	-0.089111	-0.02243	-0.002747	-0.037537	-0.000305	-0.010834
46.788	0.023041	0.36545	0.07843	-0.001373	0.071411	-0.096741	-0.40146	-0.019379	-0.035553	-0.10651	0.009003	-0.028381	0.093994	-0.28839	0.018616	0.042725	-0.004425	-0.018921	-0.14084	0.26138	-0.020752	-0.10162	0.29327	-0.071716	-0.001068	0.000153	0.00061	-0.015106	-0.0383	-0.052338	0.000153	-0.018005
46.789	0.031891	0.42435	0.033112	-0.009155	0.034637	-0.10483	-0.42282	-0.023193	-0.027161	-0.05661	0.010071	-0.025787	0.090637	0.078888	0.001831	-0.02594	-0.006561	-0.031433	-0.16647	0.19104	-0.038452	-0.13336	0.30212	-0.084076	0.01709	0.001373	0.08728	-0.018463	-0.050201	-0.068817	0.001373	-0.018005
46.79	0.024872	0.28351	-0.065765	-0.003052	0.018311	0.014954	-0.37033	-0.023346	-0.044861	-0.032043	0.001984	-0.04776	0.060883	0.22369	-0.019684	0.004578	-0.019989	-0.078583	-0.17151	0.04715	-0.049591	-0.12299	0.26566	-0.051117	0.014648	0.010529	0.049438	-0.014801	-0.006561	-0.001678	-0.000305	-0.014496
46.791	0.013428	0.14877	-0.079193	0.02121	0.00351	0.018921	-0.31525	-0.014038	-0.063934	0.018768	-0.001526	-0.067139	0.017242	0.31433	-0.000153	-0.045929	-0.00061	-0.062714	-0.14938	-0.060272	-0.036621	-0.052032	0.22949	0.014038	0.000153	0.006714	0.049744	-0.018463	-0.018311	0.037384	-0.000916	-0.01709
46.792	0.014191	-0.011749	-0.11597	0.011749	-0.001373	0.048981	-0.26993	-0.010834	-0.028687	0.14969	-0.016022	-0.044861	-0.006866	0.3331	-0.007324	-0.019989	0.016022	-0.08194	-0.056305	-0.10696	-0.026398	0.001984	0.24689	0.083771	-0.004425	0.007019	0.023041	-0.013885	-0.0383	0.009766	-0.000458	-0.024719
46.793	0.006866	-0.046234	-0.008698	0.012054	-0.013123	0.028992	-0.32089	-0.003967	0.037079	0.15488	-0.027618	-0.051727	0.009003	0.12833	-0.003967	-0.11398	0.023499	-0.026703	0.049744	-0.13748	-0.006256	0.021057	0.27771	0.065308	0.004578	0.002136	-0.037994	-0.014191	-0.039368	-0.029907	-0.003967	-0.012512
46.794	0.014801	-0.076447	0.12283	0.00946	-0.011749	-0.06424	-0.29266	-0.010681	0.086517	0.13596	-0.020142	-0.045319	0.022736	-0.079498	0.003204	-0.1062	0.051575	0.000305	0.001678	-0.1886	0.019531	0.028076	0.22705	0.081482	0.001068	0.000153	-0.028381	-0.008087	-0.17731	-0.046692	-0.001068	-0.018463
46.795	0.009613	-0.29831	-0.063324	0.001526	-0.022888	-0.18219	-0.3038	-0.001068	0.11383	0.16281	-0.010834	-0.08255	0.042877	-0.12131	-0.00061	-0.054169	0.095673	-0.060577	-0.19028	-0.13443	-0.011597	0.044556	0.23697	0.061188	0.001984	0.004883	0.12665	-0.015717	-0.19012	-0.036469	-0.000763	-0.021515
46.796	0.006866	-0.47607	-0.29938	-0.017853	-0.005035	-0.32227	-0.31769	0.006104	0.13626	0.12466	-0.012817	-0.048676	0.023499	-0.025024	0.001678	-0.043488	0.10696	-0.10849	-0.25269	-0.065918	-0.0383	-0.016937	0.26977	0.012817	-0.009155	0.007324	0.26184	-0.009766	-0.13336	-0.042725	-0.002899	-0.011444
46.797	0.00061	-0.4509	-0.3093	-0.00824	-0.029449	-0.20569	-0.27512	0.010071	0.15854	0.054779	-0.004578	-0.03952	-0.011444	0.053406	0.016479	-0.035553	0.10925	-0.067749	-0.058289	-0.084381	-0.037079	-0.10513	0.21896	0.01709	-0.00412	0.008392	0.51941	-0.01297	-0.16785	-0.045013	-0.001678	-0.014954
46.798	-0.007019	-0.42328	-0.20477	0.014648	-0.074463	0.050354	-0.20599	0.005188	0.18356	-0.18417	-0.00351	0.014038	-0.049286	0.053253	0.021057	-0.014801	0.097656	-0.006866	-0.10773	-0.098114	-0.042572	-0.18646	0.22308	-0.014496	-0.013733	0.010681	0.43579	-0.014343	-0.10117	-0.040283	-0.008545	-0.005951
46.799	-0.010529	-0.31769	0.01358	-0.004272	-0.083923	0.088501	-0.18982	0.020294	0.056305	-0.22018	0.001678	0.17761	-0.11993	0.024567	0.019684	-0.0177	0.046234	0.043488	-0.18478	-0.12894	-0.047455	-0.17364	0.21744	-0.036163	-0.020294	0.006866	-0.1358	-0.009308	0.066528	-0.058899	-0.007019	-0.015869
46.8	-0.010834	-0.18387	0.078888	-0.007629	-0.12528	0.112	-0.13504	-0.001068	-0.12375	-0.21515	0.007782	-0.13214	-0.15884	0.053406	0.03006	-0.010376	-0.028687	0.068512	-0.45258	-0.18036	-0.059967	-0.16693	0.20126	-0.021515	-0.013275	-0.007019	-0.39581	-0.006256	0.12726	-0.056763	-0.003662	-0.013428
46.801	0.017853	-0.085144	-0.035095	-0.009003	-0.057373	-0.005493	-0.16007	-0.013123	-0.17593	-0.32364	0.012512	-0.11963	-0.17136	0.1149	0.033417	0.042572	-0.068817	0.10086	-0.34317	-0.14236	-0.048523	-0.10269	0.22705	-0.035248	-0.015411	-0.009155	0.028229	-0.00946	0.088348	-0.041656	-0.005188	-0.014801
46.802	0.043793	0.000153	-0.036621	-0.010529	0.12863	-0.15503	-0.17319	-0.013885	-0.13245	-0.33478	-0.014343	-0.081787	-0.14328	0.17303	0.012512	-0.40512	-0.072327	0.080872	-0.22903	-0.016937	-0.04776	-0.016327	0.18906	-0.049286	0	-0.012512	0.078583	-0.007782	0.074768	-0.089264	-0.002594	-0.010376
46.803	0.037231	0.002136	-0.051422	-0.000763	0.1091	-0.15884	-0.13123	-0.025635	-0.062408	-0.24109	-0.001526	-0.043488	-0.066986	0.018158	-0.02655	-0.40207	-0.10651	0.048981	-0.24674	0.11017	-0.037231	0.14282	0.17716	-0.012817	-0.020752	-0.001068	-0.010834	-0.007935	0.022278	-0.14481	-0.000916	-0.006409
46.804	0.016937	-0.01358	-0.22385	-0.006256	0.07019	-0.00061	-0.063019	-0.02121	-0.036011	-0.005646	0.045776	-0.038452	0.059052	-0.052948	-0.022583	0.75653	-0.097809	0.000153	-0.28885	0.17838	-0.00351	0.29984	0.15671	0.02243	-0.042114	0.010529	0.15335	-0.001068	0.085297	-0.16541	0.001678	-0.016174
46.805	-0.000916	0.074005	-0.090332	0.007477	0.001068	0.08667	-0.017395	-0.011902	-0.031738	-0.044861	0.058136	-0.041809	0.20599	0.11902	-0.026398	0.1384	-0.086365	0.021667	-0.22705	0.16739	0.025024	0.18524	0.13748	0.061951	-0.028992	0.008698	-0.07019	-0.002136	0.11551	-0.085602	0.008392	-0.018158
46.806	-0.020447	0.15533	0.11932	0.005798	-0.027161	0.19196	0.000305	-0.000458	-0.032043	-0.020905	0.077057	-0.045624	0.21973	0.29938	-0.016327	0.29083	-0.080566	0.023041	-0.20844	0.10407	0.042419	0.017548	0.16251	0.020905	-0.036011	0.005798	-0.70587	-0.003662	0.13077	-0.11368	-0.001373	-0.015106
46.807	-0.010681	0.13077	0.088959	-0.002441	0.026398	0.19516	-0.011749	-0.000305	0.00061	0.097656	0.072784	-0.032196	0.16327	0.25452	-0.005188	1.001	-0.031128	0.037537	-0.27206	0.10086	0.067139	0.050201	0.14923	0.005188	-0.040436	0.008087	0.11185	-0.007782	0.12375	-0.19333	-0.002441	-0.017395
46.808	0.00412	0.18814	0.12375	0.01358	-0.000305	0.19012	0.009766	-0.014191	0.011139	0.12131	-0.045319	-0.023956	0.065308	0.26077	-0.032043	0.35767	-0.001068	-0.006561	-0.32883	0.08316	0.037079	0.081635	0.22644	0.001221	-0.04715	-0.002289	0.4599	-0.006256	0.084839	-0.1831	-0.002747	-0.015259
46.809	-0.001373	0.22659	0.087433	0.01709	-0.040588	0.233	0.009308	-0.004883	0.016479	0.11826	-0.068359	-0.027618	-0.057373	0.040131	-0.002289	-0.24384	0.000153	0.03891	-0.26276	-0.016785	-0.010681	0.10284	0.30472	0.004272	-0.048981	0.009155	0.30914	-0.003052	-0.043182	-0.026093	-0.003662	-0.011597
46.81	-0.002136	0.2153	0.013275	-0.009766	-0.061493	0.2002	0.003662	0.000153	0.007172	0.036316	-0.046692	-0.034637	-0.028381	-0.19211	0.019989	0.27603	-0.010681	0.071869	-0.19089	0.020447	-0.052032	0.083313	0.23789	-0.041504	-0.043793	0.001984	-0.081787	-0.004272	-0.076294	0.016785	-0.006104	-0.015564
46.811	0.00412	0.19165	0.11322	-0.007324	-0.00061	0.14542	-0.016022	-0.010376	0.015564	0.04364	-0.043488	-0.034485	0.016937	-0.37323	-0.00885	-0.39215	-0.004883	0.13992	-0.21576	-0.019531	-0.061035	0.06897	0.29541	-0.068207	-0.046539	0.00061	-0.41428	-0.003815	0.035248	-0.11139	-0.003967	-0.013123
46.812	0.016937	0.15106	0.11581	0.029449	0.017242	0.14496	-0.024872	-0.009155	0.02594	-0.049591	-0.022583	-0.053864	0.12573	-0.48859	-0.025177	-0.041504	0.034332	0.20508	-0.24338	-0.081177	-0.075684	0.066681	0.29129	-0.043488	-0.047302	0.005188	-0.46158	-0.005646	0.079498	-0.095215	-0.004883	-0.011597
46.813	0.019531	0.10666	0.23789	0.007935	0.084991	0.043335	-0.016937	-0.008698	0.024414	-0.089417	-0.019379	-0.099792	0.11978	-0.48828	-0.039673	0.11353	0.028229	0.22659	-0.23926	-0.10361	-0.073395	0.04837	0.30182	-0.074768	-0.049896	0.004578	-0.56061	-0.005951	0.089417	-0.024872	0.000305	-0.019836
46.814	0.010071	0.046844	0.21088	-0.021515	0.090637	0.065155	0.014801	-0.013428	0.006561	-0.18814	-0.010681	0.22537	0.12741	-0.14755	-0.009308	0.056763	0.025787	0.30548	-0.094604	-0.14572	-0.048676	0.11322	0.34576	-0.1268	-0.054016	0.000305	-0.66925	-0.006866	0.10239	0.12573	-0.004883	-0.012054
46.815	0.005188	0.089722	0.2066	-0.015564	0.075684	0.13763	0.023804	-0.002899	0.016174	-0.18387	-0.012665	-0.013123	0.10727	0.008392	0.006866	-0.48843	0.0177	0.34592	-0.069122	-0.11292	-0.011597	0.063019	0.30289	-0.13153	-0.051117	0.000305	-0.5336	-0.004272	0.1683	0.19257	-0.001526	-0.005951
46.816	0.008545	0.10498	0.21103	0.003815	0.059662	0.083313	0.049744	-0.002899	0.03479	-0.09552	-0.013885	0.062561	0.090637	0.013733	0.014801	-0.15335	0.016022	0.37796	-0.13596	-0.032654	0.010986	0.001984	0.31891	-0.061646	-0.018921	0.008392	-0.21332	-0.003815	0.22278	0.17242	-0.000458	-0.009155
46.817	0.005951	0.055084	0.11948	0.002594	0.032196	0.084229	0.10559	0.000763	0.030212	-0.043182	-0.003357	0.0354	0.048828	0.068054	0.028687	0.063782	0.002441	0.32623	-0.26474	0.021515	-0.00351	0.011139	0.30823	-0.078278	-0.040741	0.008392	0.42313	-0.001984	0.16663	0.13367	-0.002289	-0.011749
46.818	-0.004272	0.018311	0.066681	0.008087	-0.018921	0.14969	0.14557	-0.000458	0.00946	0.12329	-0.00351	0.01236	-0.005341	0.18204	0.018921	0.26016	0.014801	0.3067	-0.354	0.007782	-0.016937	0.01297	0.36575	-0.073853	-0.053864	0.001221	0.42114	-0.002136	0.086517	0.14984	-0.001984	-0.007629
46.819	-0.003815	-0.062256	-0.050659	0.004272	-0.046387	0.18448	0.15961	0.012054	-0.028839	0.069885	0.003967	0.045929	0.012665	0.098877	0.015564	0.003662	0.018768	0.32333	-0.40909	0.11475	-0.02182	0.019836	0.32669	-0.030975	-0.046387	-0.001221	0.028381	-0.001678	0.036316	0.13779	0.000305	-0.010681
46.82	-0.007019	-0.13412	-0.14771	0.007324	-0.027466	0.17716	0.12619	0.015869	-0.056305	0.015869	0.001526	-0.13504	0.028381	0.027161	-0.008698	0.03067	0.033569	0.32852	-0.35538	0.17761	-0.005341	0.026398	0.36575	0.018616	-0.030212	-0.006866	0.21301	0.00473	-0.020752	0.057526	-0.001526	-0.008545
46.821	0.002289	-0.079956	-0.057983	0.005646	0.068817	0.041809	0.037537	0.008087	-0.030212	0.004425	0.00946	-0.08728	0.087738	-0.20783	-0.023346	0.012817	0.048065	0.33554	-0.39185	0.21149	-0.005341	0.023041	0.34378	0.052185	-0.04425	-0.005341	0.34988	-0.001831	-0.046844	0.011444	0.000916	-0.012665
